<svg version="1.1" id="Layer_1" xmlns="http://www.w3.org/2000/svg" xmlns:xlink="http://www.w3.org/1999/xlink" x="0px" y="0px"
	 viewBox="0 0 640 5" style="enable-background:new 0 0 640 5;" xml:space="preserve">
<path d="M188.1,1h-2.3C186.6,1,187.4,1,188.1,1z M0,0v1v3.3l0.1-0.2c0,0,0.1,0,0.1,0c0,0,0.1,0,0.1,0c0,0,0.1,0,0.1,0
	C0.6,4.2,0.7,4,0.9,4C1,4,1,4,1.1,4c0.2,0,0.4,0.1,0.6,0.1h0.2L2.1,4C2.2,4,2.4,3.9,2.5,3.9c0.2,0,0.3,0,0.5,0h0.5
	c0.2,0,0.4,0,0.7,0c0.1,0,0.3,0,0.4,0h0.2H5c0.2,0,0.5,0,0.7,0h0.1c0,0,0.1,0,0.1,0l0.1-0.1L6,3.7c0,0,0,0,0,0c0,0,0.1,0,0.1,0
	c0,0,0.1,0,0.1-0.1c0,0,0.1-0.1,0.1-0.1h0.1h0.2c0.3,0,0.7,0,1-0.2l0.4-0.2C8.2,3.1,8.3,3,8.5,3l0.2-0.1c0.1-0.1,0.1-0.1,0.2-0.2
	c0,0,0.1-0.1,0.1-0.1h0c0.1,0,0.2,0,0.3,0c0.1,0,0.1,0,0.2,0c0.1,0,0.2-0.1,0.3-0.1c0,0,0.1,0,0.1,0h0h0.3c0,0,0.1,0,0.1,0h0.1
	c0.1,0,0.1,0,0.2,0h0.1C11.3,3,12.1,3.1,13,3c1.2-0.2,1.7-0.8,3.5-0.8c1.7,0.3,4.4,0,7.1,0.3c1.2,0.2,2.3,0.4,3.5,0.5
	c1.7-0.2,3.6-0.3,5.3-0.5C33.5,2.5,33.8,3,35.3,3C37.4,2.9,38,2.1,40,1.9c3.2,0.3,4,0.1,7.1,0.3C47,2.7,47.8,2.7,48.3,3
	c0.2,0.1-0.2,0.4,0,0.5c0.2,0.1,1.3,0,1.2,0.3c3.1,0,5.4-1.2,8.2-1.6c1.1-0.2,2.3,0.1,3.5,0c1.5-0.1,2-0.6,3.5-0.8
	c0.3,0.4,0.7,0.6,1.2,0.8c0.2-0.3,1-0.6,1.2-0.3c1.2,0,0.8-0.7,2.3-0.5c1.2,0.8,2.4,0,4.1,0.5c1.3-0.6,2.7-0.8,4.1-0.8
	c0.1,0.4-0.2,1,0.6,1.1c1.3-0.7,1.6-0.4,2.3,0c2.2-0.9,5.3-0.7,7.6-0.8c0.6,0,0.4-0.2,0.6-0.3c0.4,0,0.8,0.1,1.2,0.3
	c0.6,0,0.3-0.2,0.6-0.3c0.4,0,0.8,0.1,1.2,0.3c0.8-0.1,1.6-0.2,2.4-0.3c1.3,0,2.7,0.4,4.1,0c0.8,0.4,3.4,0.9,1.8,1.6
	c1.6-0.1,3.1-0.1,4.7,0c0.4,0,0.7,0.3,0.6,0.3c0.6,0,1.2-0.1,1.8-0.3c0.8,0,1.6,0.1,2.4,0.3c-0.2,0,0.5-0.3,0.6-0.3
	c0.1,0,0.4,0,0.6,0c0.2,0,0.4-0.1,0.6-0.3c0.8,0,1.6,0.1,2.3,0.3c0.1,0-0.1-0.5,0-0.5c0.8-0.1,1.6-0.1,2.4,0c0.8,0.1,1.6,0.1,2.3,0
	c1.3,0,2.9-0.3,4.1-0.3c0.7,0,0.9,0.3,1.8,0.3c2,0,1.4-0.5,2.3,0c0.8,0.2,1.6,0.2,2.4,0.3c1.1,0,1.3-0.3,2.3-0.3
	c0.8,0,0.8,0.3,1.8,0.3c0.6,0,1-0.2,1.8-0.3c3.1-0.3,6.3-0.4,9.4-0.3c1,0.1,1.2,0.3,2.3,0.3c1.1,0,2.3-0.5,3.5-0.5
	c1.4-0.1,2.8,0,4.2,0.2c0.7-0.7,4.1-0.3,4.1-0.3c0.2,0,0-0.3,0.6-0.3c2.8-0.1,4.4,0.6,5.9,0c0.8,0,0.5,0.5,1.2,0.5
	c0.2-0.4,1.3-0.2,1.8,0c0.8-0.9,5.9-0.5,7.6-0.5c0.3,0,0.7-0.3,0.6-0.3c0.6,0,0.7,0.3,1.2,0.3c0.9,0,0.6-0.3,1.2,0
	c1,0.1,2,0.1,2.9,0c1.5,0,3.1-0.2,4.6-0.3h2.3c0.2,0,0.5,0,0.7,0.1c0.7,0.4,1.5,0.8,2.3,1.1c1.8-0.4,2.3,0.1,3.5-0.3
	c0.6,0.2,0.2,1,1.8,0.8c1.9,0.2,1.8-0.4,2.9-0.5c1.6,0.7,4.9-0.1,6.5-0.3c0.2,0.4,1.3,0.3,1.8,0.5c-0.2-0.6,0.7-0.4,1.8-0.5
	c1.3-0.1,3.2-0.4,4.7-0.5c0.8,0.1,0.7,0.6,1.2,0.8c3.1-0.5,6.3-0.5,9.4,0c0.8-0.1,0.7-0.6,1.2-0.8c0.8,0.1,1.6,0,2.4-0.3
	c0,0.7,1.6,0.7,2.3,1.1c1.7,0,3.4,0.3,5.3,0.3c0.6,0,0.6-0.2,1.2-0.3c0.6-0.1,1.2,0,1.8,0c0.5,0,0.8-0.3,1.2-0.3
	c-0.2,0,0.4,0.3,0.6,0.3c1.7,0.2,3.5-0.6,5.3-0.3c0.2,0,0.3,0.5,0.6,0.5c0.7,0.1,1.2-0.5,2.3-0.3c0,0.4,1.1,0.1,1.8,0.3
	c0.5,0.1,0.6,0.7,1.8,0.5c1.4-0.3,4.2-0.9,5.9-0.3c0.8-0.8,3.7-0.8,5.3-0.8c0.2,0,0.4,0.1,0.6,0.3c1.1,0.1,2.7-0.1,3.5,0
	c1.1,0.1,1.3,0.5,2.4,0.5c2,0,3.9,0,5.9-0.3c0.6-0.1,1.2-0.1,1.8,0c2.2,0.2,1.3-0.4,2.4-0.5c0.8,0.2,0.1,1,1.2,1.1
	c1.3-0.6,3.8-0.8,6.5-0.8c0.8-0.1,0.3,0.4,0.6,0.5c0.5,0.2,1.8-0.1,1.8,0.3c0.8,0,1.6-0.2,2.3-0.5c0.4,0,0.8,0,1.2,0
	c1,0,2-0.2,2.9-0.5c1.9-0.4,2,0,3.5,0c0.8,0,1.1-0.4,2.3-0.3c0.1,0,0.9,0.3,0.6,0.3c1,0,2.2-0.5,3.5-0.3c0.9,0.2,0.5,0.4,1.8,0.5
	c0.2,0,0.4,0,0.6,0c0.2,0,0.4-0.1,0.6-0.3c1,0,0.9,0.5,1.8,0c0.7-0.4,2.4,0.3,2.9,0.3c-0.3,0,0.6-0.3,0.6-0.3
	c0.4-0.1,0.8-0.2,1.2-0.3c1.7,0.5,3.5,0.8,5.3,0.8c0.5,0,0.9-0.3,1.2-0.3c0.3,0.1-0.1,0.6,0.6,0.5c-0.1,0,0.1-0.1,0.1-0.1
	c0.3-0.1,0.6-0.2,0.9-0.2c0.2,0,0.3-0.1,0.5-0.1c0.3,0,0.5,0.1,0.6,0.2c0.2,0.1,0.5,0.1,0.5,0.2c0.1,0,0.1,0.2,0.2,0.3
	c0.1,0.1,0.2,0.1,0.3,0.2c0.1,0.2,0.2,0.4,0.4,0.4c0.2,0,0.4-0.1,0.6-0.1c0.2,0,0.4-0.2,0.6-0.2c0.3-0.1,0.7,0.1,1,0l1.2-0.2
	c1.1-0.2,1.7,0.1,2.3-0.3c0.2-0.1,1,0,1.2,0c0.5-0.3,1.2-0.4,1.8-0.3c1.1,0,1.8,0.4,2.9,0.5c0.6,0,0.5-0.3,0.6-0.3
	c0.5,0,0.5,0.3,0.6,0.3c1.3,0,3,0.1,3.5,0c0.2,0,0.8-0.3,0.6-0.3c2-0.1,1.4,0.5,2.4,0c1-0.2,2-0.3,2.9-0.3c1.2-0.2,1.7-0.4,2.9-0.5
	c1.2-0.1,2.6,0.1,4.1,0c0.6,0,0.7-0.3,1.2-0.3c2.1-0.2,2.2,0.3,3.5,0.3c1.2,0.3,2.2,0.8,2.9,1.1c0.3,0.1,0.7,0.2,1,0.2
	c0.3,0.1,0.6,0.2,0.9,0.3c0.5,0.1,0.9,0.1,1.4,0.1c0.5,0,0.8-0.4,1.3-0.4h1c0.6,0.1,1.3,0.2,1.9,0.4c0.5,0.1,1,0.1,1.5-0.1l1.1-0.3
	c0.3-0.1,0.6-0.1,0.9-0.1c0.4-0.1,0.8-0.1,1.3-0.2c0.1-0.1,0.3-0.1,0.5,0c0.2,0.1,0.3,0.3,0.5,0.5c0.2,0.2,0.4,0.4,0.6,0.5
	c0.1,0.1,0.2,0.2,0.4,0.3c0.2,0.1,0.4,0.1,0.5,0.2c0.2,0.1,0.5,0.1,0.8,0.1c0.4,0,0.8-0.1,1.2-0.1c0.2,0,0.4,0,0.5-0.1
	s0.1-0.3,0.2-0.3c0.1,0,0.2,0.2,0.4,0.1c0.2-0.1,0-0.4,0.2-0.4c0.2,0,0.2,0.1,0.5,0.1c0.3,0,0.6,0.1,0.9,0.1c0.1,0,0.3,0.1,0.4,0
	c0.1-0.1,0.1-0.2,0.2-0.3c0.3-0.3,0.6-0.4,1-0.4c0.4,0,0.8,0,1.1,0.1c0.2,0.1,0.3,0.1,0.5,0.1c0.4-0.1,0.8-0.3,1.2-0.4
	c0.6-0.1,1.1-0.2,1.7-0.2c0.4-0.1,0.8,0,1.1-0.1c0.2,0,0.3,0,0.5,0c0.2,0,0.8,0.1,0.9,0.2c0,0.1,0,0.1,0,0.3s-0.1,0.4,0.1,0.6
	c0.1,0.1,0.3,0.2,0.5,0.2c0.3,0,0.5,0.1,0.8,0.2c0.2,0.1,0.8,0.2,0.9,0.2c0.1,0,0.2-0.2,0.4-0.2c0.2-0.1,0.4-0.1,0.6-0.2
	c0.2,0,0.4,0,0.6,0c0.3,0.1,0.5,0.3,0.9,0.3c0.2,0,0.4,0,0.6-0.2c0.2-0.1,0.4-0.2,0.6-0.3c0.3-0.2,0.6-0.4,0.9-0.6
	c0.3-0.2,0.6-0.3,0.9-0.3c0.2,0,0.4,0,0.7,0l1,0.1c0.9,0.1,1.8,0,2.6-0.3c0.3-0.2,0.6-0.3,0.9-0.5c0.2,0,0.3,0,0.5,0
	c0.2,0,0.4-0.1,0.7-0.1c0.4,0,0.8-0.1,1.3-0.1c0.3,0,0.6,0.1,0.9,0.2c0.6,0,1.1,0,1.7-0.1c0.7-0.1,1.4-0.1,2.1,0c0.7,0,1.3,0,2,0
	c0.5,0,1,0.1,1.5,0.1c0.6,0.1,1.1,0.3,1.6,0.5c0.2,0,0.4,0.1,0.6,0.1h0.4c0.4,0,0.8,0,1.2,0c0.2,0.1,0.2,0.1,0.4,0
	c0.1-0.1,0.2-0.2,0.3-0.2c0.2-0.1,0.2,0,0.4,0.1c0.3,0.2,0.6,0.2,0.9,0.1c0.1-0.1,0.1-0.1,0.1-0.2c0-0.1,0-0.1,0.1-0.1
	c0.3-0.2,0.7,0,0.9,0.3c0.1,0.2,0.1,0.4,0.2,0.5s0,0.1,0.1,0.1l0.4,0.1l0.5,0.1c0.3,0,0.6,0.1,0.9,0.3c0.2,0.2,0.2,0.3,0.5,0.3
	c0.2,0,0.4-0.1,0.6-0.1c0.2,0,0.2,0.1,0.5,0.1c0.3,0,0.7-0.1,1,0c0.2,0,0.3,0.1,0.5,0.1c0.2,0,0.4,0.1,0.6,0c1.1-0.1,1.8-0.3,3-0.3
	c0.9,0,1.9,0.2,2.9,0.3c1.4,0.1,2.8,0.1,4.3,0.1h1.8c0.3,0,0.6,0,0.9,0.1c0.2,0.1,0.3,0.2,0.5,0.2c0.3,0,0.6,0.1,0.9,0.1
	c0.2,0,0.4,0,0.6,0c0.1,0,0.2,0,0.2,0c0.2,0,0.4,0,0.6-0.1c0.1,0,0.1-0.1,0.2-0.2c0.1-0.1,0.1-0.1,0.3-0.1c0.2,0,0.4-0.1,0.6-0.1
	c0.5-0.1,1.1,0,1.5-0.1c0.4,0,0.7,0,1-0.3l0.3-0.3c0.1-0.1,0.1-0.2,0.2-0.2c0.1,0,0.2,0,0.3,0c0.1,0,0.3-0.1,0.4-0.1
	c0.4,0,0.7,0,1.1,0c0.2,0,0.4-0.1,0.6-0.1c0.1,0,0.2,0,0.3,0c0,0,0.1,0,0.1-0.1c0.1,0,0.3,0.1,0.4,0.1c0.3,0.1,0.6,0.1,0.9,0.2
	c0.1,0,0.2,0.1,0.2,0.1c0.2,0,0.4,0,0.6-0.1c0.2-0.1,0.3-0.1,0.5-0.1c0.1,0,0.3,0,0.4,0.1c0.3,0.1,0.6,0.1,0.9,0
	c0.8-0.1,1.6-0.1,2.4,0.1c0.1,0,0.2,0.1,0.3,0.1c0.1,0,0.1,0.2,0.2,0.2c0.1,0,0.2,0,0.3,0h0.8c0.3,0,0.6,0.2,0.9,0.2
	c0.2,0,0.3-0.1,0.4-0.1c0.1,0,0.3,0,0.4,0c0.5,0.1,1.1,0.1,1.7,0.2c0.4,0.1,0.9,0.1,1.3,0c0.3-0.1,0.5-0.2,0.8-0.3
	c0.5-0.1,0.9-0.1,1.4-0.2l4.4,0c0.9-0.1,1.9,0.1,2.9,0c0.8-0.1,1.6-0.2,2.3-0.3c1.2,0,1,0.4,2.4,0.5c-0.3,0,0.5-0.3,0.6-0.3
	c2.8-0.3,1.6,0.9,2.9,0.3c1.6-0.7,1.9,0.6,2.9,0c0.3-0.2,0.7,0.3,0.6,0.3c2.7,0.2,5.5,0.2,8.2,0c1-0.1,2,0,3,0c0.4,0,0-0.3,0.6,0
	c0.3,0.2,0.7-0.3,0.6-0.3c1.1,0,1.3,0.3,2.3,0.3c-0.2,0,0.4-0.3,0.6-0.3c2.1-0.3,3.5,0.4,4.7,0.5c3.4,0.2,4.4-0.5,6.5-0.5
	c2,0,3.8,0.2,5.9,0.3c2,0.1,3.8-0.1,5.9,0c0.8,0,0.7,0.2,1.8,0.3s2.1-0.4,3.1-0.2c0.7,0.1,1.3,0.1,2,0c0.5-0.1,1-0.2,1.5-0.4
	l0.6-0.3c0.7-0.3,1.5-0.4,2.2-0.4l1.9-0.1c0.3,0,0.6,0,0.8-0.1c0.2-0.1,0.4-0.2,0.6-0.3c0.2-0.1,0.4-0.2,0.6-0.2
	c0.2,0,0.4,0.2,0.6,0.3c0.2,0.1,0.4,0.1,0.7,0.1c0.2,0,0.4,0,0.5,0c0.2-0.1,0.4-0.2,0.5-0.3c0.2-0.1,0.5-0.1,0.7-0.1
	c0.2,0,0.3-0.1,0.5-0.1c1.1,0,2.2,0,3.2,0c0.3,0,0.7,0,1,0c0.3,0,0.5-0.1,0.8-0.1c0.1,0,0.1-0.1,0.3,0c0.3,0.1,0.5,0.5,0.8,0.6
	c0.1,0,0.1,0,0.2,0c0.2,0,0.4,0,0.5,0.1c0.2,0.1,0.4,0,0.5,0.1c0.3,0.1,0.6,0.2,0.8,0.3c0.1,0,0.2,0,0.3,0s0.1,0.2,0.2,0.2
	c0.4,0.2,0.9-0.2,1.2-0.2c2.2,0,4.3,0.2,6.5,0.5c1,0.1,2.8,0.2,4.1,0.3c0.6-0.1,1.2-0.1,1.8-0.3c0.5,0,1.1,0.6,1.2,0.3
	s1.4-0.3,1.8-0.5c-0.1,0.1,0.1,0.2,0.1,0.2c0.2,0.1,0.4,0.1,0.5,0.1c0.3,0,0.7,0,1,0c0.2,0.1,0.2,0.2,0.3,0.3
	c0.2,0.1,0.5,0.1,0.6,0.1c0.1,0,0.2,0.1,0.2,0.1c0,0.1-0.1,0.2,0,0.3c0.1,0,0.4,0,0.5,0c0.2,0,0.4,0,0.6-0.1c0.2-0.1,0.3,0,0.4-0.1
	c0.1,0,0.1-0.2,0.2-0.2c0.1,0,0.2-0.1,0.2-0.1c0.1,0,0.3,0.1,0.4,0.1c0.2,0.1,0.4,0.1,0.6,0.1c0.4,0,0.7-0.1,1.1-0.1
	c0.2,0,0.6,0.1,0.8-0.1c0,0,0,0,0,0c0.1-0.2,0-0.4-0.2-0.4c0.1-0.2,0.4-0.1,0.6-0.1c0.3,0.1,0.6,0.2,0.9,0.2
	c0.2-0.1,0.3-0.3,0.3-0.4c0-0.1-0.1-0.1-0.2-0.2c0-0.1,0-0.3,0.1-0.3s0.5,0.1,0.5,0c0-0.1,0-0.2,0-0.3c0-0.1,0-0.2,0.1-0.2
	s0.2,0.1,0.3,0.1c0.1,0,0.2,0,0.4,0c0.2,0,0.2-0.2,0.3-0.2c0.2-0.1,0.4-0.1,0.6,0c0.2,0,0.4,0.1,0.6,0.2c0.1,0,0.2,0.1,0.3,0.2
	c0.3,0.2,0.7,0.2,1,0.1c0.1-0.1,0.3-0.1,0.5-0.1c0.2,0,0.2,0,0.2-0.2c0-0.1,0-0.3,0.1-0.4c0.2-0.2,0.2-0.1,0.5,0.1
	c0.3,0.2,0.7,0.1,1,0.1c1,0.2,2.1,0.2,3.2,0.2h1.3c0.2,0,0.5-0.1,0.6-0.3c0.6,0,0.7,0.3,1.2,0.3c0.8,0,0.8-0.4,1.8-0.3
	c0,0.5,1.5,0.1,2.3,0.3c0.9,0.1,1.3,0.7,2.3,0.5c0.1-0.2,0-0.5,0.6-0.5c1.2,0.7,4.9,0.7,6.5,0.5c1.5,0.8,4.8,0.6,6.5,0.8
	c0.2,0,0.8,0.3,0.6,0.3c1.6,0,3-0.5,4.7-0.3c1.4,0.4,3.8,0.4,5.3,0.8c-0.1-0.5,0.6-0.6,1.8-0.5c1.3,0.4,4.4,0,4.7,0.8
	c1.7-0.1,2.1-0.5,2.9,0c0.3,0.2,0.7-0.3,0.6-0.3c0.9,0,1.9,0,2.9,0c0.4,0,0.1-0.3,0.6,0s2.2-0.3,2.3-0.3c0.9,0,0.6,0.3,1.2,0
	c0.1,0,0.2,0,0.3,0h0.5c0.1,0,0.3,0,0.4,0c0.2,0,0.3,0,0.5-0.1c0.1-0.1,0.1-0.1,0.2-0.1h0.1h0.1c0.1,0,0.1,0,0.2,0h0.3
	c0.1,0,0.1,0,0.2,0l0.2,0.1c0.1,0,0.2,0,0.3,0c0.1,0,0.2,0,0.3,0.1h0.2h0.1h0.2h0.2V1V0H0z"/>
</svg>
