<svg version="1.1" id="Layer_1" xmlns="http://www.w3.org/2000/svg" xmlns:xlink="http://www.w3.org/1999/xlink" x="0px" y="0px"
	 viewBox="0 0 287.5 55" style="enable-background:new 0 0 287.5 55;" xml:space="preserve">
<style type="text/css">
	.st0{fill:#FFFFFF;}
	.st1{opacity:0.65;fill:#FFFFFF;enable-background:new    ;}
</style>
<g>
	<g>
		<g>
			<g>
				<g>
					<path class="st0" d="M39.4,14.4h-1.9c-0.4,0-0.6,0.3-0.6,0.6v20.8c0,0.4,0.3,0.6,0.6,0.7h1.9c0.4,0,0.6-0.3,0.6-0.6V15
						C40,14.6,39.7,14.4,39.4,14.4z"/>
					<path class="st0" d="M46.8,14.3h-2.1c-0.4,0-0.6,0.3-0.6,0.6v2c0,0.4,0.2,0.6,0.6,0.6h2.1c0.4,0,0.6-0.3,0.6-0.6v-2
						C47.4,14.5,47.1,14.3,46.8,14.3z"/>
					<path class="st0" d="M46.6,20.4h-1.8c-0.3,0-0.6,0.3-0.6,0.6v14.8c0,0.4,0.3,0.6,0.6,0.7h1.8c0.4,0,0.6-0.3,0.6-0.6V21
						C47.2,20.6,46.9,20.4,46.6,20.4z"/>
					<path class="st0" d="M57.6,20.1L57.6,20.1C56,20.5,55,21.2,54.4,22h-0.1v-1c0-0.4-0.3-0.6-0.6-0.6h-1.8c-0.4,0-0.6,0.3-0.6,0.6
						v14.8c0,0.4,0.2,0.6,0.6,0.7h1.8c0.4,0,0.6-0.3,0.6-0.6v-9.5c0-1.1,0.3-2,1-2.7c0.7-0.7,1.7-1,2.8-1c2.3,0,3.4,1.4,3.4,4.1v9.1
						c0,0.4,0.3,0.6,0.6,0.6h1.8c0.4,0,0.6-0.3,0.6-0.6V26c0-1.9-0.6-3.3-1.6-4.4C61.7,20.3,59.9,19.8,57.6,20.1z"/>
					<path class="st0" d="M75.8,27.2c-0.2-0.2-0.2-0.5,0-0.7l4.6-5.2c0.3-0.3,0.1-0.9-0.4-0.9h-2.3c-0.1,0-0.3,0.1-0.3,0.3l-6.3,6.9
						H71V15c0-0.4-0.3-0.6-0.6-0.6h-1.8c-0.4,0-0.6,0.3-0.6,0.6v20.8l0,0c0,0.4,0.3,0.6,0.6,0.8h1.8c0.4,0,0.6-0.3,0.6-0.6v-4.6
						c0-0.2,0-0.3,0.1-0.4l2.1-2.3h0.1l5.1,7.6c0.1,0.1,0.3,0.2,0.5,0.2h2c0.5,0,0.7-0.5,0.5-0.9L75.8,27.2z"/>
					<path class="st0" d="M91.5,20.4h-3.4v-3.3c0-0.4-0.3-0.6-0.6-0.6h-1.7c-0.4,0-0.6,0.3-0.6,0.6v3.3h-1.9c-0.3,0-0.5,0.3-0.6,0.6
						v1.4c0,0.4,0.3,0.6,0.6,0.6h1.8v8.4c0,1.7,0.4,2.9,1.1,3.9c0.8,0.8,2,1.2,3.7,1.2h0.9c0.4,0,0.6-0.3,0.6-0.6v-1.7
						c0-0.4-0.3-0.6-0.6-0.6h-0.7c-0.8,0-1.3-0.2-1.6-0.6c-0.3-0.4-0.4-1-0.4-1.9V23h3.4c0.4,0,0.6-0.3,0.6-0.6V21
						C92.1,20.6,91.8,20.4,91.5,20.4z"/>
					<path class="st0" d="M102.5,20.3c-0.3-0.1-0.7-0.1-1-0.1c-0.7,0-1.3,0.1-1.9,0.5s-1.1,0.9-1.4,1.5h-0.1V21
						c0-0.4-0.3-0.6-0.6-0.6h-1.7c-0.3,0-0.5,0.3-0.5,0.6v14.8c0,0.4,0.2,0.6,0.5,0.5h1.9c0.4,0,0.6-0.3,0.6-0.6v-8.8
						c0-2.6,1-3.9,2.9-3.9c0.3,0,0.5,0.1,0.7,0.1c0.3,0.1,0.6-0.1,0.7-0.4l0.3-1.8C102.9,20.7,102.8,20.4,102.5,20.3z"/>
					<path class="st0" d="M111.4,19.6c-2.2,0-3.9,0.8-5.3,2.3S104,25.4,104,28c0,2.5,0.7,4.6,2.1,6.1s3.2,2.3,5.4,2.3
						c1.5,0,2.9-0.4,4-1.1c0.9-0.7,1.7-1.5,2.3-2.4c0.2-0.2,0.1-0.5-0.1-0.7l-1.3-1c-0.3-0.2-0.7-0.1-0.9,0.3
						c-0.1,0.1-0.2,0.3-0.3,0.4c-0.2,0.2-0.4,0.5-0.8,0.9c-0.3,0.3-0.8,0.6-1.3,0.8c-0.5,0.2-1.1,0.3-1.8,0.3
						c-1.4,0-2.4-0.5-3.2-1.4c-0.6-0.8-1-1.8-1.1-2.9c0-0.3,0.3-0.6,0.6-0.6H118c0.4,0,0.6-0.3,0.6-0.6v-0.3c0-2.6-0.7-4.7-2-6.2
						C115.3,20.4,113.5,19.6,111.4,19.6z M107,26.5c0-1.1,0.4-2.1,1.2-3c0.7-0.9,1.8-1.4,3.1-1.4c1.4,0,2.5,0.4,3.2,1.3
						c0.7,0.8,1,1.9,1.1,3.1C115.6,26.5,107,26.5,107,26.5z"/>
					<path class="st0" d="M134,21.9c-1.3-1.5-3.1-2.3-5.2-2.3c-2.2,0-3.9,0.8-5.3,2.3s-2.1,3.5-2.1,6.1c0,2.5,0.7,4.6,2.1,6.1
						s3.2,2.3,5.4,2.3c1.5,0,2.9-0.4,4-1.1c0.9-0.7,1.7-1.5,2.3-2.4c0.2-0.2,0.1-0.5-0.1-0.7l-1.3-1c-0.3-0.2-0.7-0.1-0.9,0.3
						c-0.1,0.1-0.2,0.3-0.3,0.4c-0.2,0.2-0.4,0.5-0.8,0.9c-0.3,0.3-0.8,0.6-1.3,0.8c-0.5,0.2-1.1,0.3-1.8,0.3
						c-1.4,0-2.4-0.5-3.2-1.4c-0.6-0.8-1-1.8-1.1-2.9c0-0.3,0.3-0.6,0.6-0.6h10.4c0.4,0,0.6-0.3,0.6-0.6v-0.3
						C136,25.5,135.3,23.4,134,21.9z M124.4,26.5c0-1.1,0.4-2.1,1.2-3c0.7-0.9,1.8-1.4,3.1-1.4c1.4,0,2.5,0.4,3.2,1.3
						c0.7,0.8,1,1.9,1.1,3.1H124.4z"/>
					<path class="st0" d="M20.7,12.1c-0.5-0.9-1.8-0.9-2.3,0L14.7,19l4.8,8.7c0.1,0.2,0.1,0.4,0.1,0.6c-0.1,0.6-0.6,1.1-1.3,1.1
						h-1.6v5.9c0,0.6,0.5,1.1,1.1,1.1h3.6c0.6,0,1.1-0.5,1.1-1.1v-5.9h5.7c0.9,0,1.5-0.9,1.1-1.7L20.7,12.1z"/>
					<path class="st0" d="M8.7,12.1L0.1,27.7c-0.4,0.8,0.2,1.7,1.1,1.7h5.7v5.9c0,0.6,0.5,1.1,1.1,1.1h3.6c0.6,0,1.1-0.5,1.1-1.1
						v-5.9h-1.6c-0.7,0-1.2-0.5-1.3-1.1c0-0.2,0-0.4,0.1-0.6l4.8-8.7L11,12.1C10.5,11.2,9.2,11.2,8.7,12.1z"/>
				</g>
				<polygon class="st1" points="168.6,20.6 167.5,19.5 160,27 152.6,19.5 151.5,20.6 159,28 151.5,35.5 152.6,36.6 160,29.1
					167.5,36.6 168.6,35.5 161.1,28 				"/>
			</g>
		</g>
	</g>
	<g>
		<path class="st0" d="M260.9,23.2c0.4,2.1,2.7,2.2,4.3,1.5c2.7-1.2,3-3.4,3-3.4c0-3.3-6-4.4-6.8-1.1l0,0c0,0,0,0,0,0
			C260.8,21.1,260.7,22.1,260.9,23.2z M263.6,20.8c1-1,3.4,0.2,1.6,1.4C263.9,24.1,262.1,22.4,263.6,20.8z"/>
		<polygon class="st0" points="256.1,38.2 256.1,38.2 256.1,38.2 		"/>
		<path class="st0" d="M271.5,3.6c-1.1-0.6-2.5-1-3.7-1.4c-0.3,0-0.9-0.4-1.2-0.3c-1-0.6-2.2-0.7-3.3-0.9c0,0,0,0-0.1,0l0,0
			c-1.7-0.3-3.4-0.6-5-0.7l0,0c0,0,0,0,0,0c-0.2,0-0.4-0.1-0.5-0.1c0,0,0,0-0.1,0l0,0c-2.5-0.2-5.1-0.4-7.6,0.3
			c-4.6,0.7-9.1,3.2-12.2,6.6c-0.5,0.6-1.5,2.1-0.2,2.5c0.2,0.4,1.1,0.4,1.4,0c0.1-0.5,0-1.1,0.5-1.6c1.7-1.7,3.9-3.1,6.1-4.3l0,0
			c0.3-0.1,0.5-0.3,0.8-0.4l0,0c0.9,0,1.8-0.9,2.7-0.9l0,0c2.1-0.6,4.3-0.8,6.5-0.9l0,0c0.2,0,0.4,0,0.7,0.1l0,0
			c0.6,0.1,1.3,0.1,1.9,0.2c0,0,0,0,0,0c1,0.1,2.1,0.2,3.1,0.4c0-0.1,0-0.1,0.1-0.1l0,0c1.1,0.2,2.1,0.4,3.2,0.6c0,0,0,0,0,0
			c0.5,0.3,1,0.6,1.6,0.7c1.6,0,3,1.3,4.6,1.6c0,0,0,0,0,0c1.8,1.3,3.9,2.4,5.6,3.9c1.6,1.2,2.9,2.7,4.4,4c0,0,0.1,0,0.1,0.1
			c3.9,3.4,5,8.6,3.8,13.5c0,0,0,0,0,0c-0.3,1.2-0.7,2.4-0.9,3.6c-0.3,0.9-0.7,1.8-1.2,2.6l0,0c-0.8,1.4-2.3,2.2-3.4,3.3
			c-2.7,0.9-8.2,4.9-10.3,1.5c-0.2-0.3,0-0.4,0-0.4c1.1-1,1.3-1.4,3.7-4c2.4-2.7-0.4-5.1-0.4-5.1c-0.8-0.6-1.8-0.9-2.8-0.6
			c-1.3,0.1-2.5,1.1-3.3,2.1l0,0c-1.4,1.9-0.9,4.3-0.9,6.5c0,0.3,0.5,0.7-0.1,1c-3.3,2.1-5.8-1.7-4.9-4.8l0,0
			c0.3-0.8,0.5-1.5,0.8-2.3c0,0,0,0,0,0c0.1-0.3,0.2-0.6,0.3-0.9l-0.1,0.1l0.1-0.1c0.1-0.3,0.1-0.6-0.1-0.6c-0.2,0-0.9-0.1-0.9-0.1
			c-0.6-0.1-0.6,0.5-0.9,0.7l0,0c-0.5,0.8-0.9,1.6-1.4,2.4l0,0c-0.1,0.2-0.2,0.5-0.3,0.7c-1.4,3.1-6.8,8.8-8,2.5c0,0-0.2-0.7,0-1
			c2.7-3.4,6.2-6.4,7.6-10.7c2.4-7.5-5.4-9.7-7.5-2.2c-1,3.6-1.9,7.3-2.3,11c-0.7,1.5-2.7,2-3.9,3c0,0-0.8,0.5-1,0.6
			c-0.1,0-0.4,0.2-0.3,0c0.1-0.2,0.4-1.1,0.4-1.1c0.7-1.7,0.7-3.8,0.9-5.7c0.1-0.5-0.2-0.8-0.7-0.9c-0.5-0.2-0.9,0.2-1.1,0.3
			c-2.5,2.6-1.6,8-7.9,9.9c-1.2-4.4,2.8-8.2,1.2-9.3c-2.6-1.7-3.4,7.9-9.1,9l0,0c-1.1,0.2-0.7-1.2-0.8-1.9l0,0c0,0,0,0,0-0.1l0,0
			c-0.1-1.9,2.4-5.1,1.9-6.7c-0.1-0.2-0.3-0.3-0.5-0.3c-0.6,0-0.8-0.5-1.2-0.1c-0.2-0.2-0.4-0.4-0.7-0.6c-0.1-0.1-0.3-0.3-0.4-0.3
			c-1.2-0.7-2.2-0.3-2.2-0.3c0,0,0,0,0,0c0,0-0.1,0-0.1,0c-4.2,1-5.1,6-8,8.5c-1.8,1.5-4,3-6.3,3.7l0,0c0,0,0,0-0.1,0l0,0
			c-2.8-0.1-5.3-1.6-7.4-3.4c-1.5-0.6,1.1-2.6,1.3-3.7c1.2-2.1,2.1-4.3,3.3-6.4c1.2-2,1.6-4.7,3.3-6.4c3.7-1.9,7-4.5,9.7-7.7l0,0
			c0.1-0.2,0.3-0.4,0.4-0.6c0.4-0.5,1.3-1.7,1.3-1.7c0.2-0.3,0.4-0.6,0.6-0.9c0.2-0.5,0.4-0.9,0.5-1.4l0,0c0.8-3.3-2.8-4.8-5.3-3.1
			c-2,1.4-3.7,3.2-5.1,5.3l0,0c-1.5,2.4-2.7,4.8-3.9,7.4c-0.3,0.7-0.5,1.5-1.4,1.8c-0.9,0.3-1.7,0.8-2.6,1.1c-0.6,0.2-1.5,0-1.6,1.1
			c-0.1,0.5,0.2,0.4,0.4,0.5l0.2,0.1l0,0c0.2,0.1,0.4,0.1,0.7,0.2l0,0c0.8,0.2,1.6-0.3,2.4-0.5c-2.1,4.3-4.1,8.8-6.8,12.7
			c-2.1-1.4-4.4-2.4-6.9-2.8c-1,0-2,0.2-2.9,0.8c0,0,0,0,0,0c-3.7,1.8-7.7,9.4-2.6,11.5c0,0,0.5,0.3,1,0.3c1.5,0.2,3,0.3,4.5-0.3
			l0,0c3-1,5.1-3.5,7.3-5.7c1.3-0.1,2.3,1.5,3.5,2.1l0,0c4.6,2.7,9.9,2.1,13.8-1.6c0,0,0.5,4,5,2.7c1.5-0.4,2.9-2.9,3.6-1.9
			c0.5,0.8,1.5,0.3,2.3,0.6c0,0,1.8,1.2,5.1-2.7c0.2-0.3,0.2,0.9,0.7,2c0.3,0.7,1.1,1.1,1.8,1.1c1.6,0,2.9-0.9,4.4-1.7
			c0,0.1-0.1,0.1-0.1,0.2c-0.8,0.7-1.5,1.5-2.3,2.3c0,0,0,0,0,0c-1.3,1.2-2.5,2.4-3.4,3.9l0,0c-0.8,1.3-1.3,2.7-1.3,4.3l0,0
			c0,0,0,0,0,0.1l0,0c0,0.4,0,0.8,0,1.2c-0.5,1.5,1.2,4.1,2.6,4.1c0,0,0,0,0,0c0.4,0.5,0.7,0,1.1,0l0,0c0,0,0,0,0.1,0
			c1-0.6,2.2-0.8,2.8-1.8c0,0,0,0,0,0l0,0c2.7-3.9,3.8-8.6,4.5-13.2c0.1-2.6,3.6-3.1,5.4-4.5c0.7,1.5,1.1,3.1,2.5,4.1
			c0.8,0.7,3.2,0.2,3.2,0.2l0,0v0c1.1-0.1,2.2-0.7,3.1-1.4c0.6-0.7,1.3-1.3,1.9-2c0.7,1.5,1.7,2.7,3.1,3.4c0,0,1.7,1,3.7,0.1
			c2.6-1.6,3.2,2,5.8,1.4c0,0,0,0,0,0c0.7,0,1.4-0.1,2.1-0.1l0,0c1.2-0.3,2.3-0.8,3.5-1.2l0,0c4.2-1.3,8.3-3.8,9.6-8.3c0,0,0,0,0,0
			c0.5-1.1,0.7-2.3,1-3.5l0,0c0.3-1.2,0.4-2.5,0.6-3.8c0-0.1,0-0.1-0.1-0.2c0,0,0-0.2,0.1-0.2C288.4,14.3,279,7.6,271.5,3.6z
			 M250.4,28c0.2-0.9,0.4-1.8,0.6-2.7c0.1-1.2,0.6-2.3,0.9-3.5l0,0c3.4-8.7,6.8,0.1-1.6,8.2C250.3,29.3,250.3,28.6,250.4,28z
			 M209.9,16.3L209.9,16.3c-0.2,0.1-0.7,0.7-0.7,0.4C215.9,0.8,225.1,4.6,209.9,16.3z M195.6,36.8c-1.4,1.5-2.8,3-4.5,4.1l0,0
			c-0.3,0.2-1.5,0.7-1.5,0.7c-9.2,3.2-2.3-11.9,4.3-7.1l0,0c0.9,0.7,1.6,1.1,1.6,1.1l0,0C196.1,35.8,196.1,36.5,195.6,36.8z
			 M223.4,32.2c-0.3,2.5-1.5,5.1-3.5,6.6c-2.5,1.8-2.6-2.5-1.9-4c0.5-1.7,4.9-8.3,5.8-4.2C223.7,31.2,223.3,31.7,223.4,32.2z
			 M238.4,45.3c-0.9,2.6-1.8,5.6-4,7.4c-0.8,0.2-1.2-1-1.3-1.7l0,0c-0.6-2.7,0.7-5.2,2.6-7.1c0,0,0,0,0,0c1.2-0.9,2.6-3.1,3.7-3.4
			C239.1,42.2,238.9,43.8,238.4,45.3L238.4,45.3z M240.2,36.9c-0.3,0.3-0.6,0.5-0.9,0.8c0.3-0.3,0.5-0.7,0.9-0.9
			C240.2,36.8,240.2,36.8,240.2,36.9z M267.5,35.4c-1.2-5.6,4-8,3.6-4.2C271.4,32.1,267.7,36.6,267.5,35.4z"/>
	</g>
</g>
</svg>
