<svg version="1.1" id="Layer_1" xmlns="http://www.w3.org/2000/svg" xmlns:xlink="http://www.w3.org/1999/xlink" x="0px" y="0px"
	 viewBox="0 0 640 5" style="enable-background:new 0 0 640 5;" xml:space="preserve">
<path d="M640,0.8V4v1H0V4V0.8c0.2,0,0.4,0,0.6,0c0,0,0.1,0,0.1,0c0.1,0,0.2,0,0.3,0c0.1,0,0.3,0,0.4,0c0.2,0,0.3,0,0.5,0.1
	c0.1,0,0.2,0,0.3,0C2.3,0.8,2.4,0.9,2.5,1C2.7,1,2.8,1,3,1c0.1,0,0.3,0,0.4,0C3.6,1,3.8,1.1,4,1.2c0.1,0,0.2,0.1,0.3,0.1l0.2,0.1
	c0.1,0.1,0.3,0.2,0.4,0.4C5,2,5.2,1.9,5.4,1.9h0.1h0.1c0.1,0,0.1,0,0.2,0.1C5.9,2,6,2.1,6.1,2.2c0.1,0.1,0.2,0.1,0.3,0.1
	c0.2,0,0.4,0,0.6,0c0,0,0.1,0,0.1,0c0.1,0,0.1,0,0.1-0.1c0.1-0.1,0.2-0.1,0.3-0.1c0.1,0,0.2,0,0.4,0s0.3,0,0.4,0c0.1,0,0.2,0,0.4,0
	c0.2,0,0.4,0,0.6,0c0.1,0,0.2,0.1,0.4,0.2h0.2H10c0.2,0,0.5-0.1,0.7-0.1c0.2,0,0.4-0.1,0.6-0.2c0.5-0.2,1-0.4,1.5-0.5
	c0.5-0.2,1.1-0.3,1.6-0.4c0.5-0.1,1-0.1,1.4,0c0.2,0,0.4,0,0.5,0c0.1,0,0.3,0.1,0.4,0.1c0.1,0,0.2,0.1,0.3,0.1l0.2,0.2
	c0.1,0.1,0.2,0.2,0.3,0.3c0.2,0.1,0.5,0.3,0.7,0.3c0.1,0,0.2,0,0.3,0c0.1-0.1,0.1-0.1,0.2-0.2c0.1-0.1,0.3-0.2,0.4-0.2
	c0.3,0,0.5,0,0.8,0.1c0.1,0,0.2,0.1,0.4,0.1c0,0,0.1,0.1,0.2,0.1c0.1,0,0.3-0.1,0.4,0C21,2,21,2,21,2c0.1,0.1,0.2,0.1,0.4,0.2
	c0.2,0,0.5,0,0.7-0.1c0.2,0,0.5,0,0.7,0c0.1,0,0.3,0,0.4,0c0.1,0,0.2,0,0.3,0.1c0.1,0.1,0.4,0.1,0.7,0.1c0.2,0,0.4,0.1,0.6,0.2
	c0.2,0.1,0.5,0.1,0.7,0.1c0.3,0.1,0.6,0.1,0.9,0c0.3-0.1,0.4-0.3,0.7-0.4C27.2,2.1,27.4,2,27.5,2c0.3,0,0.7,0,1,0.2
	c0.3,0.1,0.7,0.1,1.1,0.1c0.4,0,0.8,0,1.3,0c0.1,0,0.2,0,0.4,0c0.2,0,0.3-0.1,0.5-0.2C32,2.1,32.4,2,32.7,2h0.2l0.2-0.1
	c0.1,0,0.2,0.2,0.3,0.3c0.1,0.1,0.1,0.2,0.2,0.3c0,0.1,0,0.1,0.1,0.2c0.1,0,0.1,0,0.2,0c0.1,0,0.3,0,0.4,0c0.1,0,0.2,0.2,0.3,0.3
	C34.7,3,34.8,3.1,35,3.1c0.1,0,0.3,0,0.4-0.1c0.2-0.1,0.5-0.2,0.7-0.2c0.2-0.1,0.5,0,0.7,0.2c0.1,0.1,0.1,0.2,0.3,0.1
	c0.1,0,0.2-0.1,0.3-0.2l0.5-0.3c0.2-0.1,0.4-0.1,0.7-0.1l0.7,0.1c0.1,0,0.3,0.1,0.4,0.1c0.2,0,0.4,0,0.6,0c0.9,0,1.9,0,2.8-0.1
	c0.6,0,1.2-0.1,1.7-0.3L45,2.6l0.2,0.2c0.2,0.1,0.4,0.2,0.6,0.2c0.5,0.2,1,0.3,1.5,0.4c0.4,0.1,0.8,0.1,1.2,0.2h0.2
	c0.4-0.1,0.8-0.1,1.2,0c0.3,0.1,0.7,0.1,1,0.2h0.3c0.1,0,0.2,0,0.3,0c0.1,0,0.2,0,0.4,0c0.4,0,0.9-0.1,1.3-0.2
	c0.4-0.1,0.9-0.1,1.3-0.2c0.4-0.1,0.8-0.2,1.1-0.3h0.2c0.1,0,0.2,0,0.3-0.1c0.2-0.1,0.3-0.2,0.4-0.3l0.5-0.3l0.2-0.1
	c0.1,0,0.1,0,0.2-0.1c0.1,0,0.1,0,0.2,0c0.1,0,0.2,0.1,0.3,0.1c0.1,0.1,0.2,0.1,0.3,0.2c0.2,0,0.3,0,0.5,0c0.1,0,0.2,0,0.2,0
	c0,0,0.1,0,0.2,0s0.2-0.1,0.3-0.1l0.2-0.1c0.1-0.1,0.2-0.2,0.4-0.2c0.2,0,0.4,0,0.5,0l0.5,0.2c0.2,0.1,0.4,0.1,0.7,0.2
	c0.2,0,0.5,0,0.7,0c0.1,0,0.1,0,0.2,0.1c0.1,0.1,0.2,0.1,0.2,0.1c0.1,0.1,0.1,0.1,0.2,0.2C63.2,3,63.3,3,63.4,3h0.4
	c0.1,0,0.2,0,0.3,0c0.1,0,0.2,0.1,0.3,0.1c0.2,0,0.3,0.1,0.5,0.1h1.3c0.9,0,1.9,0,2.8,0s1.9,0,2.8,0c1.6,0,2,0.3,3.1,0.4
	c1.3,0.1,1.3-0.4,2.3-0.4c0.7,0,1.2,0.5,2.3,0.4c1.6,0,3.2-0.4,4.6-1.1c0.6,0,0.8,0.4,1.5,0.4c0.5,0,1.5-0.3,2.3-0.4
	c0.8-0.2,1.5-0.2,2.3,0c1.6,0.1,3.1,0,4.6-0.4c0.5,0,1,0,1.5,0c0.8-0.5,0.3,0.1,1.5,0c0.6,0,1.8-0.2,3.9-0.4h0.3
	c1.2,0,2.4-0.3,3.6-0.7c4,1.4,9.4,0,16.2,0.4c2.4,0.1,3.8,0.8,6.2,0.8c2.2,0.2,2.8-0.6,4.6-0.8c2.4-0.2,2.1,0.7,4.6,0.4
	c0.2,0,1.1-0.4,0.8-0.4c1,0.1,1.5,0.6,3.1,0.8c-0.3,0,0.4-0.6,0.8-0.4c1.1,0.7,3.8,0.3,6.2,0.8c0.3,0.1,0,0.4,0.8,0.4
	c0.6,0,0.8,0.3,1.5,0.4c1.5,0.1,3.6,0.1,5.4,0c0.6,0,0.8-0.3,1.5-0.4c0,0,0.9,0.6,0.8,0c1.7-0.2,1.1,0.7,2.3,0.8
	c3-0.7,7.3-0.7,9.2-1.9c4.1,0.1,7.4-0.2,9.3-1.1c1.1,0.2-0.1,0.3,0,0.8c0.7,0.2,1.4,0.3,1.5,0.8c2.7-0.5,3.6,0.4,5.4-0.4
	c1,0.1,1.2,0.7,2.3,0.8c1.4,0.1,1.6-0.4,3.1-0.4c2,0.1,3.8,0.7,6.2,0.4c2.7-0.1,2.9-1.3,5.4-1.5c4.3-0.5,6.9,0.9,10.8,0.4
	c0.7-0.1,1.3-0.3,2.3-0.4c0.3,0,0.6-0.2,0.8-0.4c0.9-0.1,0.4,0.3,0.8,0.4c1.3-0.3,2.6-0.4,3.9-0.4c2.1,0.1,4.2,0.5,6.2,1.1
	c2.3,0.1,2.4-0.9,4.6-0.8c0.5,0.4,1.8,0.4,1.5,1.1c0.8-0.9,5.5,0.2,6.2-0.8c2,0,1.1,1.5,3.1,1.5c2.4,0.4,3.5,0,6.9,0.4
	c0.8,0.2,1.5,0.3,2.3,0.4c1.3-0.1,2.6-0.4,3.9-0.8c1.5-0.3,3.4,0.1,3.9-0.8c0.2,0.4,1.8,0.1,2.3,0.4c0.9,0.5,0.6-0.2,2.3,0
	c0.2,0.2,0.5,0.3,0.8,0.4l1.1,0.1c0.5,0,0.9,0.1,1.3,0.1c0.4,0,0.9,0.1,1.3,0.2c0.2,0,0.4,0.1,0.5,0.2l0.2,0.1l0.2,0.1
	c0,0,0,0,0.1,0h0.1c0.1,0,0.1,0.1,0.1,0.1c0.1,0,0.1,0.1,0.2,0.1h0.2c0,0,0.1,0,0.1,0l0.1-0.1h0.1h0.1h0.1h0.1c0,0,0.1,0,0.1,0
	c0.1,0,0.2,0.1,0.3,0.1c0,0,0.1,0,0.2,0c0,0,0.1,0,0.1,0h0.1c0,0,0.1,0,0.1,0h0.1c0,0,0.1,0,0.1,0h0.2h0.1c0.1,0,0.2,0,0.2,0h0.1
	h0.1h0.2c0,0,0.1,0,0.2,0h0.1h0.2h0.1h0.1h0.1h0.1h0.1h0.1c0.6-0.1,3.9-0.6,5.4-0.8c0.8-0.1,1.5-0.1,2.3,0c1.3,0.3,2.6,0.3,3.9,0
	c1.7-0.2,2.5-0.2,5.4-0.4c1.2-0.1,1.3-0.3,2.3-0.4c0.9-0.1,0.5,0.3,0.8,0.4c0.1,0,2.3-0.4,2.3-0.4c0.8-0.5,0.8-0.2,3.1,0
	c0.8-0.3,1.7-0.6,2.6-0.8c0.7-0.2,1.3-0.4,1.9-0.7c0.3-0.1,0.6,0,0.8,0.1c0.3,0.1,0.7,0.2,1,0.1c0.5,0,1,0,1.5,0
	c0.8-0.1,1.7,0,2.5,0.1l0.8,0.2c0.5,0.1,1,0.1,1.5-0.1c0.2-0.1,0.5-0.1,0.7-0.1c0.4,0,0.7,0.1,1.1,0.1c0.3,0,0.5,0,0.8-0.1
	c0.5-0.1,0.9-0.1,1.4-0.1c0.1,0,0.3,0,0.4,0c0.2,0,0.3,0.3,0.4,0.4c0.5,0.4,1.1,0.5,1.8,0.4c0.5-0.1,1-0.1,1.4-0.1
	c0.2,0,0.5,0,0.7,0c0.2,0,0.4-0.1,0.6-0.3c0.3-0.2,0.3-0.3,0.6-0.3c0.1,0,0.3,0,0.4,0c0.2,0.1,0.3,0.3,0.5,0.4
	c0.5,0.3,1.2-0.1,1.7-0.3c0.2-0.1,0.3-0.1,0.5-0.1c0.2,0,0.3,0.2,0.5,0.3c0.3,0,0.7-0.2,0.9-0.4c0.4-0.1,0.8-0.1,1.2-0.1
	c0.1,0,0.2-0.1,0.4-0.1c0.2,0,0.4,0.1,0.5,0.2c0.3,0.1,0.5,0.2,0.8,0.3c0.1,0.1,0.2,0.2,0.3,0.3c0.1,0.1,0.2,0.3,0.4,0.4
	c0.2,0.1,0.4,0.2,0.7,0.2c0.5,0,1,0,1.5,0s1,0.1,1.4,0.2c1,0.3,1.9,0.5,2.9,0.6c2.4,0.2,5.1-0.4,6.9,0c1.7-0.2,1.1,0.7,2.3,0.8
	c2.5-0.5,6.9-0.1,10.8-0.4c1.1-0.1,3.3,0,3.9-0.8c1,0.2,1.3,0.6,2.3,0.8c1,0.2,3-0.3,3.1,0.4c1.6-0.6,3.7,0,6.2-0.4
	c0.3-0.1,0.6-0.2,0.8-0.4c0.6-0.1,0.8,0.5,1.5,0.4c0.2-0.2,0.5-0.3,0.8-0.4c2.3-0.3,4.6-0.3,6.9,0c0.7,0.1,1.6-0.1,2.3,0
	c1.1,0.2,3.1,0.6,4.6,0.8c-0.3,0,0.4-0.6,0.8-0.4c1.7,1,6.3-0.6,10-0.4c2.3-0.5,2.3,0.7,3.9,0.8c0.9,0,1.4,0,1.5,0.4
	c1.7-1.3,8.1-0.3,9.2-1.9c1-0.3,1.3,0.4,1.5,0.4c1.5,0.1,1.6-0.2,3.9-0.4c0.5,0,1,0,1.5,0c0.4-0.2,0.6-0.3,3.1,0
	c1.7,0.2,1.6,0.1,3.9,0.4c0.3,0,0.6,0.2,0.8,0.4c0.5,0,1.4-0.4,2.3-0.4c1.8,0,3.7,0.4,6.9,0.4c0.7,0,1.4-0.6,1.5,0
	c1.6-0.1,2.1-0.8,3.1-1.1c2.5,0.6,5.1,0.7,7.7,0.4c-0.3,0.8,0.5,1,0.8,1.5c6.2-0.5,12.2,0.7,17-1.9c0.8,0,1.6,0.1,2.3,0.4
	c1.2,0.2,2.6,0.6,3.8,0V1.7c0.5,0,1.5,0.3,2.3,0.4c0.3,0.1,0.6,0.2,0.8,0.4c0.6,0.1,0.9-0.4,0.8-0.4c1.5,0.3,3.1,0.6,4.6,0.8
	c3.1,0.3,1.9-1.6,4.6-1.5c-0.1,1.1,2.3,0.9,2.3,1.9c0,0,4.6,0,5-0.1c2-0.1,4.1-0.2,6.1-0.2c0.9,0,1.8,0,2.7,0.1
	c0.5,0,0.9,0.1,1.3,0.1c0.2,0,0.4,0.1,0.6,0.1c0.2,0,0.3-0.1,0.4-0.1c0.1,0,0.3,0,0.4,0c0.1,0,0.2-0.1,0.3-0.1
	c0.2-0.1,0.5-0.2,0.8-0.2c0.1,0,0.2,0,0.4,0s0.3-0.1,0.5-0.1c0.2,0,0.4,0.1,0.6,0.2c0.4,0.1,0.7,0,1.1-0.2c0.4-0.3,0.9-0.5,1.4-0.5
	c0.2,0,0.4,0,0.6-0.1c0.4-0.2,0.7-0.4,0.9-0.8c0.1-0.2,0.2-0.3,0.4-0.3c0.2,0,0.3,0,0.5,0c0.1,0,0.3-0.1,0.4-0.1
	c0.4,0,0.7,0.3,1,0.6c0.1,0.1,0.2,0.3,0.3,0.3c0.1,0,0.3,0,0.4,0c0.7,0,1.5,0.2,2.2,0.2c0.2,0,0.4,0,0.7-0.1h0.3c0.1,0,0.1,0,0.2,0
	c0.6-0.1,1.2,0,1.8,0.1c0,0,0,0.1-0.1,0.1c0.2,0,0.3,0.1,0.5,0.1c0.3,0,0.7,0,1,0c0.5,0,0.9,0.1,1.4,0.2c0.4,0.2,0.9,0.3,1.3,0.3
	c0.3-0.1,0.6-0.3,0.9-0.4s0.5,0,0.7-0.1c0.3,0,0.6,0,0.9,0.1c0.2,0,0.4,0.1,0.5,0.2c0.2,0.1,0.2,0.4,0.3,0.5s0.4,0,0.5,0
	c0.2,0,0.4,0,0.6-0.1c0.2-0.1,0.5-0.2,0.8-0.3c0.4-0.1,0.8,0.5,1.2,0.4c0.8-0.2,1.5-0.1,2.2-0.7c0.2-0.2,0.4-0.3,0.6-0.5
	c0.3-0.2,0.5-0.4,0.7-0.6c0.1-0.1,0.2-0.2,0.3-0.2c0.3,0,0.6,0.1,0.9,0.2c0.4,0,0.8,0.1,1.2,0.1c0.2,0,0.4,0,0.6-0.1
	c0.5-0.1,1.1-0.1,1.6-0.1c0.6,0,1.1-0.2,1.7-0.3c0.4,0,0.8,0,1.2,0c0.2,0,0.3,0,0.5,0c0.2,0.1,0.3,0.3,0.5,0.3c0.2,0,0.1,0,0.3-0.1
	c0.2-0.1,0.4-0.1,0.6-0.1c0.2,0,0.5-0.1,0.7-0.1c0.2-0.1,0.2,0,0.4,0.1c0.3,0.2,0.6,0.3,0.9,0.3c0.2,0,0.3-0.2,0.5-0.2
	c0.2-0.1,0.4-0.1,0.6-0.1c0.4,0,0.8,0,1.2,0c0.2-0.1,0.5-0.2,0.7-0.3c0.2-0.1,0.4-0.4,0.6-0.5c0.2-0.1,0.6,0.1,0.8,0.3
	s0.4,0.3,0.6,0.5c0.2,0.2,0.1,0.1,0.2,0.1c0.2,0,0.3-0.1,0.5-0.2c0.1,0,0.4-0.1,0.5,0c0.1,0.1,0.1,0.2,0.1,0.3
	c0,0.3,0.3,0.5,0.6,0.4c0,0,0,0,0.1,0c0.4-0.1,0.6-0.6,1-0.3c0.2,0.1,0.3,0.2,0.6,0.1c0.2-0.1,0.3-0.1,0.5-0.1
	c0.3,0,0.6,0.1,0.9,0.4c0.3,0.2,0.6,0.4,1,0.4c0.3,0,0.5-0.4,0.9-0.4c0.2,0,0.5,0,0.7,0.1c0.1,0,0.2,0.1,0.3,0.1c0.2,0,0.3,0,0.5,0
	h1.3c0.1,0,0.3,0,0.4,0s0.3-0.1,0.4-0.1c0.3,0,0.7,0,1,0s0.6,0.1,0.8,0.1s0.4,0,0.6,0s0.5,0.1,0.7,0.1c0.2,0,0.8,0,1.2,0
	c0.1,0,0.2,0,0.3,0c0.1,0,0.2-0.1,0.2-0.1c0.2-0.1,0.5-0.4,0.7-0.4c1,0,1.2,0.7,2.3,0.8c0.6,0,1.3-0.6,2.3-0.4
	c0.3,0.8,3.5,0.6,4.6,1.1c1.5,0.1,3.1,0.1,4.6,0c1.2-0.7,0.6,0.1,3.1,0c1.8-0.1,3.6-0.4,5.4-0.8c1.7,0.2,1.6,0.1,3.8,0.4
	c0.3,0,0.6,0.2,0.8,0.4c0.6,0,0.8-0.4,1.5-0.4c0.3,0,0.6,0.1,0.8,0.4c1.3,0,1.7-0.3,3.1-0.4c4.5-0.3,8.5,0,12.3-0.8
	c0.3-0.1,1.4,0.1,1.5,0c1.1-0.6,4.9,0.4,6.2-0.4c0.5-0.3,0.6-0.7,1.5-0.8c1.4,0,1.6,0.4,3.1,0.4c0.6,0,1.3-0.6,2.3-0.4
	c0.2,0-0.1,1,0.8,0.8c1.8-0.5,3.5-0.1,6.2-0.4c0.6-0.1,0.8-0.3,1.5-0.4c0.1,0,0.3,0,0.4,0l0.2,0.1c0.2,0,0.4,0,0.5,0l1.2-0.1
	c0.2,0,0.3,0,0.5,0.1c0.2,0.1,0.4,0,0.7,0.1C639.7,0.8,639.8,0.8,640,0.8L640,0.8z"/>
</svg>
